<svg width="25" height="14" viewBox="0 0 25 14" fill="none" xmlns="http://www.w3.org/2000/svg">
<path fill-rule="evenodd" clip-rule="evenodd" d="M0.47608 0.512718C0.781308 0.211047 1.19506 0.0416005 1.62645 0.0416005C2.05784 0.0416005 2.47159 0.211047 2.77682 0.512718L12.479 10.1138L22.1811 0.512718C22.3302 0.354447 22.5099 0.227501 22.7096 0.139455C22.9093 0.0514091 23.1248 0.00406686 23.3434 0.000250541C23.562 -0.00356578 23.7791 0.0362235 23.9818 0.117244C24.1845 0.198264 24.3686 0.318856 24.5232 0.471825C24.6778 0.624795 24.7996 0.807006 24.8815 1.00759C24.9634 1.20818 25.0036 1.42303 24.9997 1.63933C24.9959 1.85563 24.948 2.06894 24.8591 2.26654C24.7701 2.46415 24.6418 2.64199 24.4819 2.78947L13.6293 13.5289C13.3241 13.8306 12.9104 14 12.479 14C12.0476 14 11.6338 13.8306 11.3286 13.5289L0.47608 2.78947C0.171231 2.48742 0 2.07799 0 1.65109C0 1.2242 0.171231 0.814764 0.47608 0.512718V0.512718Z" fill="#8C8B90"/>
</svg>
