<svg width="14" height="25" viewBox="0 0 14 25" fill="none" xmlns="http://www.w3.org/2000/svg">
<path fill-rule="evenodd" clip-rule="evenodd" d="M0.512718 0.47608C0.814765 0.171231 1.2242 0 1.65109 0C2.07799 0 2.48743 0.171231 2.78947 0.47608L13.5289 11.3286C13.8306 11.6338 14 12.0476 14 12.479C14 12.9104 13.8306 13.3241 13.5289 13.6293L2.78947 24.4819C2.64199 24.6418 2.46415 24.7701 2.26654 24.8591C2.06894 24.948 1.85563 24.9959 1.63933 24.9997C1.42303 25.0036 1.20818 24.9634 1.00759 24.8815C0.807008 24.7996 0.624795 24.6778 0.471825 24.5232C0.318856 24.3686 0.198264 24.1845 0.117244 23.9818C0.0362236 23.7791 -0.00356562 23.562 0.0002507 23.3434C0.00406702 23.1248 0.051411 22.9093 0.139457 22.7096C0.227503 22.5099 0.354447 22.3302 0.512718 22.1811L10.1138 12.479L0.512718 2.77682C0.211047 2.47159 0.0416007 2.05784 0.0416007 1.62645C0.0416007 1.19506 0.211047 0.781308 0.512718 0.47608V0.47608Z" fill="#626366"/>
</svg>
