<svg width="14" height="25" viewBox="0 0 14 25" fill="none" xmlns="http://www.w3.org/2000/svg">
<path fill-rule="evenodd" clip-rule="evenodd" d="M13.4873 0.47608C13.789 0.781308 13.9584 1.19506 13.9584 1.62645C13.9584 2.05784 13.789 2.47159 13.4873 2.77682L3.88625 12.479L13.4873 22.1811C13.6456 22.3302 13.7725 22.5099 13.8605 22.7096C13.9486 22.9093 13.9959 23.1248 13.9997 23.3434C14.0036 23.562 13.9638 23.7791 13.8828 23.9818C13.8017 24.1845 13.6811 24.3686 13.5282 24.5232C13.3752 24.6778 13.193 24.7996 12.9924 24.8815C12.7918 24.9634 12.577 25.0036 12.3607 24.9997C12.1444 24.9959 11.9311 24.948 11.7335 24.8591C11.5359 24.7701 11.358 24.6418 11.2105 24.4819L0.471117 13.6293C0.169446 13.3241 0 12.9104 0 12.479C0 12.0476 0.169446 11.6338 0.471117 11.3286L11.2105 0.47608C11.5126 0.171231 11.922 0 12.3489 0C12.7758 0 13.1852 0.171231 13.4873 0.47608Z" fill="#626366"/>
</svg>
