<svg width="116" height="116" viewBox="0 0 116 116" fill="none" xmlns="http://www.w3.org/2000/svg">
<path d="M56.3846 73.1938L56.3642 73.1845C56.1075 73.059 55.8589 72.9148 55.5981 72.7986C58.5088 70.1951 60.8628 66.8707 62.4822 63.0766C64.1015 59.2825 64.9439 55.118 64.9457 50.8978C64.9357 49.9181 64.8745 48.9398 64.7623 47.9684C64.825 47.7835 64.8768 47.594 64.9171 47.4011L66.0621 36.2555C66.4194 32.7333 65.5903 29.1879 63.7428 26.3371C61.8953 23.4864 59.1674 21.5434 56.1116 20.9017L52.8925 20.2368C44.698 18.5292 36.3002 18.5292 28.1057 20.2368L24.8826 20.9017C21.8267 21.5434 19.0988 23.4864 17.2513 26.3371C15.4038 29.1879 14.5747 32.7333 14.932 36.2555L16.0729 47.4011C16.1146 47.5941 16.1677 47.7836 16.2318 47.9684C16.1196 48.9398 16.0584 49.9181 16.0485 50.8978C16.0502 55.118 16.8926 59.2825 18.512 63.0766C20.1313 66.8707 22.4853 70.1951 25.396 72.7986C25.1352 72.9148 24.8866 73.059 24.6299 73.1845L24.6095 73.1938C17.9389 76.3935 12.1404 81.5726 7.81609 88.1932C3.4918 94.8138 0.799365 102.635 0.0183374 110.844C-0.0831157 112.06 0.239209 113.273 0.915588 114.221C1.59197 115.168 2.56802 115.774 3.63262 115.906C4.69722 116.039 5.76477 115.688 6.60435 114.929C7.44393 114.171 7.98803 113.065 8.11897 111.853C8.69241 105.818 10.5598 100.037 13.556 95.0207C16.5522 90.0048 20.5851 85.9083 25.2982 83.0933L37.6162 97.1498C38.3803 98.0215 39.4166 98.5112 40.4971 98.5112C41.5775 98.5112 42.6138 98.0215 43.3779 97.1498L55.6959 83.0933C60.409 85.9083 64.4419 90.0048 67.4381 95.0207C70.4344 100.037 72.3017 105.818 72.8751 111.853C72.9835 112.99 73.4557 114.043 74.2016 114.808C74.9474 115.573 75.9143 115.998 76.9173 116C77.067 116 77.2167 115.991 77.3655 115.972C77.8978 115.906 78.4134 115.721 78.883 115.428C79.3525 115.134 79.7667 114.738 80.102 114.262C80.4373 113.785 80.687 113.238 80.837 112.652C80.9869 112.065 81.0341 111.451 80.9758 110.844C80.1944 102.634 77.5013 94.8129 73.1763 88.1923C68.8513 81.5716 63.0519 76.3929 56.3805 73.1938H56.3846ZM23.0245 35.1674C22.9061 33.9939 23.1828 32.8128 23.7986 31.8632C24.4144 30.9137 25.3232 30.2665 26.3413 30.0526L29.5604 29.3876C36.7916 27.8796 44.2025 27.8796 51.4337 29.3876L54.6528 30.0526C55.6709 30.2665 56.5798 30.9137 57.1955 31.8632C57.8113 32.8128 58.088 33.9939 57.9697 35.1674L57.2443 42.2073H23.7498L23.0245 35.1674ZM40.4971 87.2921L33.7737 79.6152C38.2053 78.528 42.7888 78.528 47.2204 79.6152L40.4971 87.2921ZM40.4971 69.5018C36.2675 69.4962 32.205 67.6168 29.166 64.2599C26.1269 60.903 24.3487 56.3307 24.2061 51.5069H56.788C56.6454 56.3307 54.8672 60.903 51.8282 64.2599C48.7891 67.6168 44.7267 69.4962 40.4971 69.5018V69.5018Z" fill="#00aae2"/>
<path d="M95.4999 41.4736C92.6923 41.4736 90.4863 43.7271 90.4863 46.5951C90.4863 49.4631 92.6923 51.7166 95.4999 51.7166C98.3075 51.7166 100.514 49.4631 100.514 46.5951C100.514 43.7271 98.3075 41.4736 95.4999 41.4736ZM95.4999 48.6437C94.3969 48.6437 93.4945 47.7218 93.4945 46.5951C93.4945 45.4684 94.3969 44.5465 95.4999 44.5465C96.6029 44.5465 97.5053 45.4684 97.5053 46.5951C97.5053 47.7218 96.6029 48.6437 95.4999 48.6437Z" fill="#00AAE2"/>
<path d="M112.245 49.668C112.446 48.6437 112.546 47.6194 112.546 46.5951C112.546 45.5708 112.446 44.5465 112.245 43.5222L115.554 41.0639C115.955 40.7567 116.156 40.1421 115.855 39.6299L111.543 32.0502C111.243 31.538 110.741 31.3332 110.24 31.6404L106.53 33.2793C105.026 31.9477 103.221 30.9234 101.316 30.2064L100.915 26.0068C100.814 25.4947 100.413 25.085 99.912 25.085H91.2886C90.7872 25.085 90.2859 25.4947 90.2859 26.0068L89.6842 30.2064C87.7791 30.9234 85.9742 31.9477 84.4701 33.2793L80.7601 31.538C80.2587 31.3332 79.6571 31.538 79.4565 32.0502L75.1448 39.6299C74.844 40.1421 75.0446 40.7567 75.4457 41.0639L78.7546 43.5222C78.5541 44.5465 78.4538 45.5708 78.4538 46.5951C78.4538 47.6194 78.5541 48.6437 78.7546 49.668L75.4457 52.1263C75.0446 52.4336 74.844 53.0482 75.1448 53.5603L79.4565 61.1401C79.7573 61.6522 80.2587 61.8571 80.7601 61.5498L84.4701 59.9109C85.9742 61.2425 87.7791 62.2668 89.6842 62.9838L90.0853 67.1834C90.1856 67.6956 90.5867 68.1053 91.088 68.1053H99.7114C100.213 68.1053 100.714 67.6956 100.714 67.1834L101.115 62.9838C103.02 62.2668 104.825 61.2425 106.329 59.9109L110.039 61.6522C110.541 61.8571 111.142 61.6522 111.343 61.2425L115.655 53.6628C115.955 53.1506 115.755 52.536 115.354 52.2287L112.245 49.668ZM95.5 57.8624C89.3834 57.8624 84.4701 52.8433 84.4701 46.5951C84.4701 40.3469 89.3834 35.3279 95.5 35.3279C101.617 35.3279 106.53 40.3469 106.53 46.5951C106.53 52.8433 101.617 57.8624 95.5 57.8624Z" fill="#00aae2"/>
<path d="M78.0849 10.019C76.6658 10.2567 75.7335 11.5824 75.9662 13.032C76.1988 14.4816 77.4965 15.434 78.9156 15.1963C80.3348 14.9587 81.267 13.633 81.0344 12.1834C80.8018 10.7337 79.504 9.78143 78.0849 10.019ZM78.6664 13.6432C78.1089 13.7365 77.578 13.3469 77.4866 12.7774C77.3952 12.2079 77.7766 11.6656 78.3341 11.5722C78.8916 11.4789 79.4225 11.8685 79.5139 12.438C79.6053 13.0075 79.2239 13.5498 78.6664 13.6432Z" fill="#00aae2"/>
<path d="M87.213 12.7431C87.2313 12.2084 87.1989 11.6822 87.1158 11.1644C87.0328 10.6467 86.899 10.1374 86.7146 9.63669L88.1877 8.1141C88.3655 7.92483 88.417 7.59722 88.2235 7.36382L85.4294 3.89753C85.2358 3.66412 84.9658 3.60301 84.7373 3.80076L82.9949 4.94311C82.1267 4.39736 81.1313 4.03238 80.1102 3.83121L79.5669 1.74246C79.4747 1.49209 79.2387 1.31894 78.9853 1.36137L74.6266 2.09119C74.3732 2.13362 74.153 2.38314 74.1946 2.642L74.2311 4.81561C73.3263 5.33926 72.4971 6.00974 71.8448 6.81008L69.8283 6.24393C69.5583 6.18282 69.2708 6.33728 69.211 6.61312L67.6464 10.8092C67.5359 11.0935 67.6871 11.3872 67.9148 11.5086L69.7867 12.4711C69.7684 13.0058 69.8008 13.532 69.8838 14.0497C69.9669 14.5675 70.1007 15.0767 70.2851 15.5775L68.812 17.1001C68.6342 17.2893 68.5827 17.6169 68.7762 17.8503L71.5703 21.3166C71.7639 21.55 72.0339 21.6112 72.2624 21.4134L74.0048 20.271C74.873 20.8168 75.8684 21.1818 76.8895 21.383L77.4328 23.4717C77.525 23.7221 77.761 23.8952 78.0144 23.8528L82.3731 23.123C82.6265 23.0805 82.8467 22.831 82.8051 22.5722L82.6673 20.4155C83.5721 19.8919 84.4013 19.2214 85.0535 18.4211L87.07 18.9872C87.34 19.0483 87.6275 18.8939 87.6956 18.6698L89.2602 14.4737C89.3707 14.1894 89.2195 13.8957 88.9919 13.7743L87.213 12.7431ZM79.4137 18.3021C76.322 18.8198 73.4315 16.6987 72.9248 13.5406C72.418 10.3824 74.4944 7.42972 77.586 6.91206C80.6777 6.3944 83.5682 8.51545 84.0749 11.6736C84.5817 14.8317 82.5053 17.7844 79.4137 18.3021Z" fill="#00aae2"/>
</svg>
