<svg width="86" height="86" viewBox="0 0 86 86" fill="none" xmlns="http://www.w3.org/2000/svg">
<path d="M60.706 43C54.469 43 47.632 46.553 43 51.9468C38.365 46.553 31.525 43 25.288 43C19.348 43 13 46.5468 13 56.5C13 66.4532 19.348 69.9939 25.288 70C31.525 70 38.362 66.447 42.997 61.0532C47.629 66.447 54.466 70 60.703 70C66.646 70 73 66.4532 73 56.5C73 46.5468 66.646 43 60.706 43V43ZM25.288 64.6031C20.752 64.6031 18.4 61.8755 18.4 56.5C18.4 51.1245 20.752 48.3969 25.288 48.3969C30.307 48.3969 36.13 51.729 39.709 56.5C36.13 61.271 30.307 64.6031 25.288 64.6031ZM60.706 64.6031C55.687 64.6031 49.864 61.271 46.285 56.5C49.861 51.729 55.69 48.3969 60.706 48.3969C65.242 48.3969 67.6 51.1245 67.6 56.5C67.6 61.8755 65.242 64.6031 60.706 64.6031Z" fill="#00aae2"/>
<rect x="5" y="5" width="75" height="28" fill="#00aae2"/>
<rect x="3" y="3" width="80" height="80" rx="11" stroke="#00aae2" stroke-width="6"/>
<path d="M14.824 24.416C14.824 24.7467 14.7653 24.992 14.648 25.152C14.5307 25.312 14.344 25.4667 14.088 25.616C13.9387 25.7013 13.752 25.7867 13.528 25.872C13.304 25.9467 13.0587 26.0107 12.792 26.064C12.5253 26.128 12.2427 26.176 11.944 26.208C11.656 26.24 11.368 26.256 11.08 26.256C10.312 26.256 9.592 26.1547 8.92 25.952C8.248 25.7387 7.66133 25.424 7.16 25.008C6.66933 24.5813 6.28 24.0533 5.992 23.424C5.704 22.7947 5.56 22.064 5.56 21.232C5.56 20.3573 5.71467 19.5947 6.024 18.944C6.344 18.2933 6.76 17.7547 7.272 17.328C7.79467 16.8907 8.38667 16.5653 9.048 16.352C9.72 16.1387 10.408 16.032 11.112 16.032C12.1253 16.032 12.9253 16.1973 13.512 16.528C14.1093 16.848 14.408 17.2693 14.408 17.792C14.408 18.0693 14.3387 18.3093 14.2 18.512C14.0613 18.7147 13.9013 18.8747 13.72 18.992C13.4533 18.832 13.1173 18.6773 12.712 18.528C12.3173 18.368 11.8693 18.288 11.368 18.288C10.472 18.288 9.75733 18.544 9.224 19.056C8.70133 19.568 8.44 20.2773 8.44 21.184C8.44 21.6747 8.50933 22.1013 8.648 22.464C8.79733 22.816 8.99467 23.1093 9.24 23.344C9.48533 23.568 9.768 23.7387 10.088 23.856C10.408 23.9627 10.7493 24.016 11.112 24.016C11.3467 24.016 11.5547 23.9947 11.736 23.952C11.9173 23.9093 12.056 23.8613 12.152 23.808V22.304H10.44C10.376 22.1867 10.312 22.032 10.248 21.84C10.1947 21.648 10.168 21.4453 10.168 21.232C10.168 20.848 10.2533 20.5707 10.424 20.4C10.6053 20.2293 10.8347 20.144 11.112 20.144H13.816C14.136 20.144 14.3813 20.2347 14.552 20.416C14.7333 20.5867 14.824 20.832 14.824 21.152V24.416ZM18.8853 16.592C19.0666 16.4853 19.3386 16.384 19.7013 16.288C20.0746 16.192 20.4479 16.144 20.8213 16.144C21.3546 16.144 21.8239 16.224 22.2293 16.384C22.6453 16.5333 22.9119 16.7733 23.0293 17.104C23.2213 17.6587 23.4293 18.304 23.6533 19.04C23.8773 19.776 24.1013 20.5387 24.3253 21.328C24.5493 22.1067 24.7679 22.88 24.9813 23.648C25.1946 24.4053 25.3813 25.0773 25.5413 25.664C25.4133 25.8133 25.2213 25.9307 24.9653 26.016C24.7093 26.112 24.4053 26.16 24.0533 26.16C23.7973 26.16 23.5786 26.1387 23.3973 26.096C23.2266 26.0533 23.0826 25.9893 22.9653 25.904C22.8586 25.8187 22.7679 25.7067 22.6933 25.568C22.6293 25.4293 22.5706 25.2693 22.5173 25.088L22.2293 23.984H19.3333C19.2479 24.304 19.1626 24.6347 19.0773 24.976C18.9919 25.3173 18.9066 25.648 18.8213 25.968C18.6719 26.0213 18.5119 26.064 18.3413 26.096C18.1813 26.1387 17.9839 26.16 17.7493 26.16C17.2053 26.16 16.7999 26.0693 16.5333 25.888C16.2773 25.696 16.1493 25.4347 16.1493 25.104C16.1493 24.9547 16.1706 24.8053 16.2133 24.656C16.2559 24.5067 16.3039 24.3307 16.3573 24.128C16.4319 23.84 16.5333 23.4827 16.6613 23.056C16.7999 22.6293 16.9493 22.1707 17.1093 21.68C17.2693 21.1787 17.4399 20.6667 17.6213 20.144C17.8026 19.6213 17.9732 19.1307 18.1332 18.672C18.2933 18.2027 18.4373 17.7867 18.5653 17.424C18.7039 17.0613 18.8106 16.784 18.8853 16.592ZM20.8053 18.656C20.6559 19.104 20.4853 19.6053 20.2933 20.16C20.1119 20.704 19.9466 21.2587 19.7973 21.824H21.7813C21.6319 21.248 21.4773 20.688 21.3173 20.144C21.1679 19.5893 21.0293 19.0933 20.9013 18.656H20.8053ZM29.6365 22.864V25.936C29.5192 25.968 29.3325 26 29.0765 26.032C28.8312 26.064 28.5858 26.08 28.3405 26.08C28.0952 26.08 27.8765 26.0587 27.6845 26.016C27.5032 25.984 27.3485 25.92 27.2205 25.824C27.1032 25.728 27.0125 25.5947 26.9485 25.424C26.8845 25.2533 26.8525 25.0293 26.8525 24.752V17.216C26.8525 16.992 26.9112 16.8213 27.0285 16.704C27.1565 16.576 27.3272 16.4747 27.5405 16.4C27.9032 16.272 28.3245 16.1813 28.8045 16.128C29.2845 16.064 29.7965 16.032 30.3405 16.032C31.8125 16.032 32.9218 16.3413 33.6685 16.96C34.4152 17.5787 34.7885 18.416 34.7885 19.472C34.7885 20.1333 34.6178 20.6987 34.2765 21.168C33.9352 21.6373 33.5298 22 33.0605 22.256C33.4445 22.7787 33.8232 23.2693 34.1965 23.728C34.5698 24.1867 34.8632 24.6027 35.0765 24.976C34.9698 25.3493 34.7725 25.6373 34.4845 25.84C34.2072 26.032 33.8925 26.128 33.5405 26.128C33.3058 26.128 33.1032 26.1013 32.9325 26.048C32.7618 25.9947 32.6125 25.92 32.4845 25.824C32.3565 25.728 32.2392 25.6107 32.1325 25.472C32.0258 25.3333 31.9245 25.184 31.8285 25.024L30.4845 22.864H29.6365ZM30.6445 20.736C31.0498 20.736 31.3698 20.6347 31.6045 20.432C31.8392 20.2187 31.9565 19.9093 31.9565 19.504C31.9565 19.0987 31.8232 18.7947 31.5565 18.592C31.3005 18.3787 30.8898 18.272 30.3245 18.272C30.1645 18.272 30.0365 18.2773 29.9405 18.288C29.8445 18.2987 29.7378 18.3147 29.6205 18.336V20.736H30.6445ZM38.7915 16.592C38.9728 16.4853 39.2448 16.384 39.6075 16.288C39.9808 16.192 40.3542 16.144 40.7275 16.144C41.2608 16.144 41.7302 16.224 42.1355 16.384C42.5515 16.5333 42.8182 16.7733 42.9355 17.104C43.1275 17.6587 43.3355 18.304 43.5595 19.04C43.7835 19.776 44.0075 20.5387 44.2315 21.328C44.4555 22.1067 44.6742 22.88 44.8875 23.648C45.1008 24.4053 45.2875 25.0773 45.4475 25.664C45.3195 25.8133 45.1275 25.9307 44.8715 26.016C44.6155 26.112 44.3115 26.16 43.9595 26.16C43.7035 26.16 43.4848 26.1387 43.3035 26.096C43.1328 26.0533 42.9888 25.9893 42.8715 25.904C42.7648 25.8187 42.6742 25.7067 42.5995 25.568C42.5355 25.4293 42.4768 25.2693 42.4235 25.088L42.1355 23.984H39.2395C39.1542 24.304 39.0688 24.6347 38.9835 24.976C38.8982 25.3173 38.8128 25.648 38.7275 25.968C38.5782 26.0213 38.4182 26.064 38.2475 26.096C38.0875 26.1387 37.8902 26.16 37.6555 26.16C37.1115 26.16 36.7062 26.0693 36.4395 25.888C36.1835 25.696 36.0555 25.4347 36.0555 25.104C36.0555 24.9547 36.0768 24.8053 36.1195 24.656C36.1622 24.5067 36.2102 24.3307 36.2635 24.128C36.3382 23.84 36.4395 23.4827 36.5675 23.056C36.7062 22.6293 36.8555 22.1707 37.0155 21.68C37.1755 21.1787 37.3462 20.6667 37.5275 20.144C37.7088 19.6213 37.8795 19.1307 38.0395 18.672C38.1995 18.2027 38.3435 17.7867 38.4715 17.424C38.6102 17.0613 38.7168 16.784 38.7915 16.592ZM40.7115 18.656C40.5622 19.104 40.3915 19.6053 40.1995 20.16C40.0182 20.704 39.8528 21.2587 39.7035 21.824H41.6875C41.5382 21.248 41.3835 20.688 41.2235 20.144C41.0742 19.5893 40.9355 19.0933 40.8075 18.656H40.7115ZM55.5428 25.664C55.3934 25.8133 55.1748 25.9253 54.8868 26C54.6094 26.0853 54.2734 26.128 53.8788 26.128C53.4841 26.128 53.1108 26.0693 52.7588 25.952C52.4068 25.8347 52.1188 25.552 51.8948 25.104L50.3108 21.872C50.1508 21.5413 50.0068 21.232 49.8788 20.944C49.7508 20.6453 49.6121 20.304 49.4628 19.92L49.3668 19.936C49.4094 20.512 49.4308 21.0987 49.4308 21.696C49.4414 22.2933 49.4468 22.88 49.4468 23.456V25.936C49.3294 25.968 49.1481 26 48.9028 26.032C48.6681 26.064 48.4334 26.08 48.1988 26.08C47.9641 26.08 47.7561 26.064 47.5748 26.032C47.3934 26 47.2441 25.936 47.1268 25.84C47.0094 25.744 46.9188 25.616 46.8548 25.456C46.7908 25.2853 46.7588 25.0667 46.7588 24.8V16.8C46.9081 16.5867 47.1374 16.4267 47.4468 16.32C47.7561 16.2133 48.0868 16.16 48.4388 16.16C48.8334 16.16 49.2068 16.224 49.5588 16.352C49.9214 16.4693 50.2094 16.7467 50.4227 17.184L52.0228 20.416C52.1828 20.7467 52.3268 21.0613 52.4548 21.36C52.5828 21.648 52.7214 21.984 52.8708 22.368L52.9508 22.352C52.9081 21.776 52.8814 21.2 52.8708 20.624C52.8601 20.048 52.8548 19.472 52.8548 18.896V16.304C52.9721 16.272 53.1481 16.24 53.3828 16.208C53.6281 16.176 53.8681 16.16 54.1028 16.16C54.5721 16.16 54.9294 16.2453 55.1748 16.416C55.4201 16.576 55.5428 16.9173 55.5428 17.44V25.664ZM57.1701 18.544C57.0955 18.4267 57.0261 18.2667 56.9621 18.064C56.8981 17.8613 56.8661 17.648 56.8661 17.424C56.8661 17.008 56.9568 16.7093 57.1381 16.528C57.3301 16.3467 57.5755 16.256 57.8741 16.256H64.8501C64.9248 16.3733 64.9941 16.5333 65.0581 16.736C65.1221 16.9387 65.1541 17.152 65.1541 17.376C65.1541 17.792 65.0581 18.0907 64.8661 18.272C64.6848 18.4533 64.4448 18.544 64.1461 18.544H62.3701V25.936C62.2528 25.968 62.0661 26 61.8101 26.032C61.5648 26.064 61.3195 26.08 61.0741 26.08C60.8288 26.08 60.6101 26.0587 60.4181 26.016C60.2368 25.984 60.0821 25.92 59.9541 25.824C59.8261 25.728 59.7301 25.5947 59.6661 25.424C59.6021 25.2533 59.5701 25.0293 59.5701 24.752V18.544H57.1701ZM69.3088 25.936C69.1914 25.968 69.0048 26 68.7488 26.032C68.5034 26.064 68.2581 26.08 68.0128 26.08C67.7674 26.08 67.5488 26.0587 67.3568 26.016C67.1754 25.984 67.0208 25.92 66.8928 25.824C66.7648 25.728 66.6688 25.5947 66.6048 25.424C66.5408 25.2533 66.5088 25.0293 66.5088 24.752V16.304C66.6261 16.2827 66.8128 16.256 67.0688 16.224C67.3248 16.1813 67.5701 16.16 67.8048 16.16C68.0501 16.16 68.2634 16.1813 68.4448 16.224C68.6368 16.256 68.7968 16.32 68.9248 16.416C69.0528 16.512 69.1488 16.6453 69.2128 16.816C69.2768 16.9867 69.3088 17.2107 69.3088 17.488V25.936ZM73.4478 16.592C73.6291 16.4853 73.9011 16.384 74.2638 16.288C74.6371 16.192 75.0104 16.144 75.3838 16.144C75.9171 16.144 76.3864 16.224 76.7918 16.384C77.2078 16.5333 77.4744 16.7733 77.5918 17.104C77.7838 17.6587 77.9918 18.304 78.2158 19.04C78.4398 19.776 78.6638 20.5387 78.8878 21.328C79.1118 22.1067 79.3304 22.88 79.5438 23.648C79.7571 24.4053 79.9438 25.0773 80.1038 25.664C79.9758 25.8133 79.7838 25.9307 79.5278 26.016C79.2718 26.112 78.9678 26.16 78.6158 26.16C78.3598 26.16 78.1411 26.1387 77.9598 26.096C77.7891 26.0533 77.6451 25.9893 77.5278 25.904C77.4211 25.8187 77.3304 25.7067 77.2558 25.568C77.1918 25.4293 77.1331 25.2693 77.0798 25.088L76.7918 23.984H73.8958C73.8104 24.304 73.7251 24.6347 73.6398 24.976C73.5544 25.3173 73.4691 25.648 73.3838 25.968C73.2344 26.0213 73.0744 26.064 72.9038 26.096C72.7438 26.1387 72.5464 26.16 72.3118 26.16C71.7678 26.16 71.3624 26.0693 71.0958 25.888C70.8398 25.696 70.7118 25.4347 70.7118 25.104C70.7118 24.9547 70.7331 24.8053 70.7758 24.656C70.8184 24.5067 70.8664 24.3307 70.9198 24.128C70.9944 23.84 71.0958 23.4827 71.2238 23.056C71.3624 22.6293 71.5118 22.1707 71.6718 21.68C71.8318 21.1787 72.0024 20.6667 72.1838 20.144C72.3651 19.6213 72.5357 19.1307 72.6957 18.672C72.8558 18.2027 72.9998 17.7867 73.1278 17.424C73.2664 17.0613 73.3731 16.784 73.4478 16.592ZM75.3678 18.656C75.2184 19.104 75.0478 19.6053 74.8558 20.16C74.6744 20.704 74.5091 21.2587 74.3598 21.824H76.3438C76.1944 21.248 76.0398 20.688 75.8798 20.144C75.7304 19.5893 75.5918 19.0933 75.4638 18.656H75.3678Z" fill="white"/>
</svg>
