<svg width="116" height="116" viewBox="0 0 116 116" fill="none" xmlns="http://www.w3.org/2000/svg">
<path d="M72.6465 57.4141L76.3081 53.899L83.6313 60.9293L98.2778 46.8687L101.939 50.3838L83.6313 67.9596L72.6465 57.4141Z" stroke="#00aae2" stroke-width="4" stroke-linecap="round" stroke-linejoin="round"/>
<path d="M27.5369 21.5493C23.7658 21.5493 20.8027 24.5124 20.8027 28.2835C20.8027 32.0547 23.7658 35.0177 27.5369 35.0177C31.3081 35.0177 34.2711 32.0547 34.2711 28.2835C34.2711 24.5124 31.3081 21.5493 27.5369 21.5493ZM27.5369 30.9772C26.0554 30.9772 24.8432 29.765 24.8432 28.2835C24.8432 26.802 26.0554 25.5898 27.5369 25.5898C29.0184 25.5898 30.2306 26.802 30.2306 28.2835C30.2306 29.765 29.0184 30.9772 27.5369 30.9772Z" fill="#00AAE2"/>
<path d="M50.0275 32.3241C50.2969 30.9773 50.4316 29.6304 50.4316 28.2836C50.4316 26.9368 50.2969 25.5899 50.0275 24.2431L54.4721 21.0107C55.0108 20.6066 55.2802 19.7985 54.8762 19.1251L49.0848 9.1585C48.6807 8.48508 48.0073 8.21571 47.3339 8.61976L42.3506 10.7747C40.3303 9.02381 37.906 7.67698 35.347 6.73419L34.8083 1.21215C34.6736 0.538735 34.1349 0 33.4614 0H21.8786C21.2052 0 20.5318 0.538735 20.5318 1.21215L19.7237 6.73419C17.1647 7.67698 14.7404 9.02381 12.7201 10.7747L7.73684 8.48508C7.06342 8.21571 6.25531 8.48508 5.98595 9.1585L0.194543 19.1251C-0.209508 19.7985 0.0598594 20.6066 0.598595 21.0107L5.04316 24.2431C4.77379 25.5899 4.63911 26.9368 4.63911 28.2836C4.63911 29.6304 4.77379 30.9773 5.04316 32.3241L0.598595 35.5565C0.0598594 35.9606 -0.209508 36.7687 0.194543 37.4421L5.98595 47.4087C6.39 48.0821 7.06342 48.3515 7.73684 47.9474L12.7201 45.7925C14.7404 47.5434 17.1647 48.8902 19.7237 49.833L20.2624 55.355C20.3971 56.0284 20.9358 56.5672 21.6093 56.5672H33.1921C33.8655 56.5672 34.5389 56.0284 34.5389 55.355L35.0776 49.833C37.6366 48.8902 40.0609 47.5434 42.0812 45.7925L47.0645 48.0821C47.7379 48.3515 48.546 48.0821 48.8154 47.5434L54.6068 37.5768C55.0108 36.9034 54.7415 36.0953 54.2027 35.6912L50.0275 32.3241ZM27.5354 43.0988C19.3196 43.0988 12.7201 36.4993 12.7201 28.2836C12.7201 20.0679 19.3196 13.4684 27.5354 13.4684C35.7511 13.4684 42.3506 20.0679 42.3506 28.2836C42.3506 36.4993 35.7511 43.0988 27.5354 43.0988Z" fill="#00AAE2"/>
<path d="M116 55.8924C116.01 50.8767 114.796 45.9382 112.469 41.527C110.142 37.1159 106.776 33.3723 102.678 30.6377C98.5798 27.903 93.8796 26.2642 89.0059 25.8705C84.1323 25.4769 79.2401 26.341 74.7753 28.384C70.3105 30.427 66.415 33.584 63.444 37.5673C60.473 41.5505 58.5209 46.2333 57.7657 51.1889C57.0105 56.1444 57.4761 61.215 59.1202 65.9386C60.7643 70.6623 63.5345 74.8886 67.1783 78.2324V116L86.7069 106.513L106.236 116V78.2324C109.305 75.4243 111.761 71.9826 113.444 68.1327C115.127 64.2828 115.998 60.1116 116 55.8924ZM96.4712 100.172L86.7069 95.4282L76.9426 100.172V84.1931C83.2527 86.5311 90.1612 86.5311 96.4712 84.1931V100.172ZM86.7069 75.9283C82.8445 75.9283 79.0689 74.7532 75.8574 72.5516C72.646 70.3501 70.1429 67.2209 68.6648 63.5598C67.1868 59.8987 66.8 55.8702 67.5536 51.9836C68.3071 48.097 70.167 44.527 72.8981 41.7249C75.6292 38.9228 79.1089 37.0146 82.8971 36.2415C86.6853 35.4684 90.6118 35.8652 94.1802 37.3817C97.7486 38.8981 100.799 41.4662 102.944 44.7611C105.09 48.0559 106.236 51.9297 106.236 55.8924C106.229 61.2042 104.17 66.2966 100.509 70.0526C96.8477 73.8086 91.8843 75.9217 86.7069 75.9283V75.9283Z" fill="#00AAE2"/>
</svg>
