<svg width="71" height="116" viewBox="0 0 71 116" fill="none" xmlns="http://www.w3.org/2000/svg">
<path d="M71 3.25926C71 2.40495 70.66 1.58564 70.0548 0.98155C69.4495 0.377465 68.6287 0.0380923 67.7727 0.0380923H51.6364C43.5109 -0.3659 35.5555 2.45649 29.5084 7.88858C23.4613 13.3207 19.8141 20.9209 19.3636 29.0286V46.4229H3.22727C2.37135 46.4229 1.55048 46.7622 0.945247 47.3663C0.340016 47.9704 0 48.7897 0 49.644V66.3941C0 67.2484 0.340016 68.0677 0.945247 68.6718C1.55048 69.2759 2.37135 69.6152 3.22727 69.6152H19.3636V112.779C19.3636 113.633 19.7036 114.452 20.3089 115.057C20.9141 115.661 21.735 116 22.5909 116H41.9545C42.8105 116 43.6313 115.661 44.2366 115.057C44.8418 114.452 45.1818 113.633 45.1818 112.779V69.6152H62.0927C62.8104 69.6255 63.511 69.3967 64.0838 68.965C64.6566 68.5333 65.0689 67.9234 65.2555 67.2316L69.9027 50.4815C70.0311 50.0056 70.0484 49.5066 69.9532 49.0229C69.858 48.5393 69.6528 48.0839 69.3535 47.6918C69.0542 47.2997 68.6688 46.9815 68.2269 46.7615C67.785 46.5415 67.2984 46.4256 66.8045 46.4229H45.1818V29.0286C45.3424 27.4339 46.0927 25.9563 47.2862 24.8842C48.4797 23.8121 50.0307 23.2224 51.6364 23.2305H67.7727C68.6287 23.2305 69.4495 22.8911 70.0548 22.287C70.66 21.6829 71 20.8636 71 20.0093V3.25926Z" fill="white"/>
</svg>
