<svg width="116" height="116" viewBox="0 0 116 116" fill="none" xmlns="http://www.w3.org/2000/svg">
<path fill-rule="evenodd" clip-rule="evenodd" d="M34.0882 0.348C40.2731 0.0632726 42.2451 0 58 0C73.7549 0 75.7269 0.0685454 81.9066 0.348C88.0862 0.627454 92.3044 1.61345 95.9953 3.04236C99.8602 4.50291 103.367 6.786 106.267 9.73873C109.219 12.6335 111.497 16.1345 112.952 20.0047C114.387 23.6956 115.367 27.9138 115.652 34.0829C115.937 40.2784 116 42.2504 116 58C116 73.7549 115.931 75.7269 115.652 81.9118C115.373 88.0809 114.387 92.2991 112.952 95.99C111.497 99.8607 109.215 103.368 106.267 106.267C103.367 109.219 99.8602 111.497 95.9953 112.952C92.3044 114.387 88.0862 115.367 81.9171 115.652C75.7269 115.937 73.7549 116 58 116C42.2451 116 40.2731 115.931 34.0882 115.652C27.9191 115.373 23.7009 114.387 20.01 112.952C16.1394 111.497 12.6325 109.215 9.73345 106.267C6.78273 103.37 4.4993 99.8649 3.04236 95.9953C1.61345 92.3044 0.632727 88.0862 0.348 81.9171C0.0632726 75.7216 0 73.7496 0 58C0 42.2451 0.0685454 40.2731 0.348 34.0935C0.627454 27.9138 1.61345 23.6956 3.04236 20.0047C4.50145 16.135 6.78663 12.6298 9.73873 9.73345C12.6337 6.78337 16.137 4.49997 20.0047 3.04236C23.6956 1.61345 27.9138 0.632727 34.0829 0.348H34.0882ZM81.4373 10.788C75.3209 10.5085 73.486 10.4505 58 10.4505C42.514 10.4505 40.6791 10.5085 34.5627 10.788C28.9051 11.0464 25.8364 11.9902 23.7905 12.7864C21.0856 13.8409 19.1505 15.0905 17.1205 17.1205C15.1962 18.9926 13.7153 21.2717 12.7864 23.7905C11.9902 25.8364 11.0464 28.9051 10.788 34.5627C10.5085 40.6791 10.4505 42.514 10.4505 58C10.4505 73.486 10.5085 75.3209 10.788 81.4373C11.0464 87.0949 11.9902 90.1636 12.7864 92.2095C13.7144 94.7246 15.196 97.0076 17.1205 98.8795C18.9924 100.804 21.2755 102.286 23.7905 103.214C25.8364 104.01 28.9051 104.954 34.5627 105.212C40.6791 105.491 42.5087 105.549 58 105.549C73.4913 105.549 75.3209 105.491 81.4373 105.212C87.0949 104.954 90.1636 104.01 92.2095 103.214C94.9144 102.159 96.8495 100.909 98.8795 98.8795C100.804 97.0076 102.286 94.7246 103.214 92.2095C104.01 90.1636 104.954 87.0949 105.212 81.4373C105.491 75.3209 105.549 73.486 105.549 58C105.549 42.514 105.491 40.6791 105.212 34.5627C104.954 28.9051 104.01 25.8364 103.214 23.7905C102.159 21.0856 100.909 19.1505 98.8795 17.1205C97.0073 15.1964 94.7283 13.7155 92.2095 12.7864C90.1636 11.9902 87.0949 11.0464 81.4373 10.788V10.788ZM50.5918 75.8798C54.7291 77.6021 59.336 77.8345 63.6256 76.5374C67.9153 75.2404 71.6215 72.4943 74.1114 68.7682C76.6013 65.0421 77.7203 60.5671 77.2773 56.1076C76.8344 51.6482 74.8569 47.4808 71.6827 44.3173C69.6593 42.2951 67.2126 40.7466 64.5188 39.7835C61.8251 38.8204 58.9514 38.4664 56.1044 38.7472C53.2575 39.028 50.5083 39.9366 48.0546 41.4074C45.6009 42.8783 43.5039 44.8748 41.9145 47.2534C40.3251 49.632 39.2828 52.3333 38.8627 55.1631C38.4426 57.9928 38.6552 60.8805 39.485 63.6182C40.3149 66.3559 41.7414 68.8756 43.662 70.9958C45.5825 73.116 47.9493 74.7841 50.5918 75.8798ZM36.9196 36.9196C39.6879 34.1513 42.9744 31.9554 46.5914 30.4572C50.2084 28.959 54.085 28.1879 58 28.1879C61.915 28.1879 65.7916 28.959 69.4086 30.4572C73.0256 31.9554 76.3121 34.1513 79.0804 36.9196C81.8487 39.6879 84.0446 42.9744 85.5428 46.5914C87.041 50.2084 87.8121 54.085 87.8121 58C87.8121 61.915 87.041 65.7916 85.5428 69.4086C84.0446 73.0256 81.8487 76.3121 79.0804 79.0804C73.4895 84.6712 65.9067 87.8121 58 87.8121C50.0933 87.8121 42.5105 84.6712 36.9196 79.0804C31.3288 73.4895 28.1879 65.9067 28.1879 58C28.1879 50.0933 31.3288 42.5105 36.9196 36.9196V36.9196ZM94.424 32.6276C95.11 31.9805 95.6592 31.2023 96.0391 30.3391C96.4189 29.476 96.6217 28.5453 96.6355 27.6024C96.6492 26.6594 96.4736 25.7233 96.1191 24.8494C95.7646 23.9755 95.2383 23.1816 94.5714 22.5148C93.9046 21.8479 93.1107 21.3216 92.2368 20.9671C91.3629 20.6126 90.4268 20.437 89.4838 20.4507C88.5409 20.4645 87.6102 20.6673 86.7471 21.0471C85.8839 21.427 85.1057 21.9762 84.4585 22.6622C83.2 23.9963 82.511 25.7685 82.5377 27.6024C82.5644 29.4363 83.3048 31.1875 84.6017 32.4844C85.8986 33.7813 87.6499 34.5218 89.4838 34.5485C91.3177 34.5752 93.0899 33.8862 94.424 32.6276V32.6276Z" fill="white"/>
</svg>
