<svg width="115" height="81" viewBox="0 0 115 81" fill="none" xmlns="http://www.w3.org/2000/svg">
<path d="M112.661 12.735C112.006 10.2921 110.727 8.06422 108.951 6.27313C107.175 4.48204 104.963 3.19021 102.536 2.52623C93.5381 0.040508 57.5398 4.39135e-05 57.5398 4.39135e-05C57.5398 4.39135e-05 21.5473 -0.0404225 12.5434 2.33547C10.1182 3.03 7.91114 4.3401 6.13417 6.13998C4.35721 7.93986 3.06998 10.1691 2.39606 12.6136C0.0229932 21.6663 8.41862e-06 40.4422 8.41862e-06 40.4422C8.41862e-06 40.4422 -0.0229752 59.3106 2.33286 68.2707C3.65442 73.2248 7.53293 77.1384 12.4629 78.4738C21.553 80.9595 57.4536 81 57.4536 81C57.4536 81 93.4519 81.0404 102.45 78.6703C104.878 78.0075 107.091 76.7187 108.872 74.9312C110.653 73.1438 111.939 70.9197 112.603 68.4789C114.982 59.432 114.999 40.6619 114.999 40.6619C114.999 40.6619 115.114 21.7877 112.661 12.735V12.735ZM46.025 57.8365L46.0537 23.152L75.9728 40.5231L46.025 57.8365V57.8365Z" fill="white"/>
</svg>
