<svg width="116" height="116" viewBox="0 0 116 116" fill="none" xmlns="http://www.w3.org/2000/svg">
<path d="M106.722 0H9.91177C4.62187 0 0 3.80624 0 9.034V106.06C0 111.316 4.62187 116 9.91177 116H106.694C112.012 116 116 111.285 116 106.06V9.034C116.031 3.80624 112.012 0 106.722 0ZM35.9574 96.6915H19.3393V45.0224H35.9574V96.6915ZM28.2232 37.1665H28.1041C22.7857 37.1665 19.3419 33.2075 19.3419 28.2517C19.3419 23.2051 22.8763 19.3393 28.3138 19.3393C33.7513 19.3393 37.0785 23.1767 37.1976 28.2517C37.195 33.2075 33.7513 37.1665 28.2232 37.1665ZM96.6915 96.6915H80.0735V68.4399C80.0735 61.6715 77.6552 57.0471 71.6428 57.0471C67.0495 57.0471 64.3307 60.1542 63.1215 63.1811C62.6684 64.2686 62.5467 65.7496 62.5467 67.2618V96.6915H45.9287V45.0224H62.5467V52.2129C64.9651 48.7691 68.7428 43.8132 77.5335 43.8132C88.4421 43.8132 96.6941 51.0037 96.6941 66.5057L96.6915 96.6915Z" fill="white"/>
</svg>
