<svg width="119" height="98" viewBox="0 0 119 98" fill="none" xmlns="http://www.w3.org/2000/svg">
<path d="M18.9434 28.671C24.3081 28.671 28.671 24.3081 28.671 18.9434C28.671 13.5786 24.3081 9.21582 18.9434 9.21582C13.5786 9.21582 9.21582 13.5786 9.21582 18.9434C9.21582 24.3081 13.5786 28.671 18.9434 28.671ZM18.9434 14.0796C21.6258 14.0796 23.8072 16.261 23.8072 18.9434C23.8072 21.6258 21.6258 23.8072 18.9434 23.8072C16.261 23.8072 14.0796 21.6258 14.0796 18.9434C14.0796 16.261 16.261 14.0796 18.9434 14.0796Z" fill="#00AAE2"/>
<path d="M17.5698 46.6642C17.9706 46.9489 18.4507 47.1019 18.9432 47.1019C19.4356 47.1019 19.9158 46.9489 20.3165 46.6642C21.0364 46.1579 37.9548 34.0079 37.8861 18.8409C37.8861 8.45251 29.3878 0 18.9432 0C8.49849 0 0.000208462 8.45251 0.000208462 18.8291C-0.0684598 34.0079 16.85 46.1579 17.5698 46.6642ZM18.9432 4.71023C26.7784 4.71023 33.1504 11.0478 33.1504 18.8527C33.2001 29.3047 22.7602 38.6898 18.9432 41.768C15.1285 38.6875 4.68622 29.3 4.73595 18.8409C4.73595 11.0478 11.1079 4.71023 18.9432 4.71023Z" fill="#00AAE2"/>
<path d="M54.6706 94.097C59.5094 94.097 63.432 90.1744 63.432 85.3356C63.432 80.4968 59.5094 76.5742 54.6706 76.5742C49.8318 76.5742 45.9092 80.4968 45.9092 85.3356C45.9092 90.1744 49.8318 94.097 54.6706 94.097Z" stroke="#00AAE2" stroke-width="6" stroke-linecap="round" stroke-linejoin="round"/>
<path d="M98.4782 94.097C103.317 94.097 107.24 90.1744 107.24 85.3356C107.24 80.4968 103.317 76.5742 98.4782 76.5742C93.6394 76.5742 89.7168 80.4968 89.7168 85.3356C89.7168 90.1744 93.6394 94.097 98.4782 94.097Z" stroke="#00AAE2" stroke-width="6" stroke-linecap="round" stroke-linejoin="round"/>
<path d="M45.9087 85.3351H37.1473V67.8123M32.7666 32.7666H80.9544V85.3351M63.4316 85.3351H89.7158M107.239 85.3351H116V59.0508H80.9544M80.9544 37.1473H102.858L116 59.0508M37.1473 50.2894H54.6701" stroke="#00AAE2" stroke-width="6" stroke-linecap="round" stroke-linejoin="round"/>
</svg>
