<svg width="97" height="97" viewBox="0 0 97 97" fill="none" xmlns="http://www.w3.org/2000/svg">
<path d="M42.9375 4C46.0143 4 48.5 6.48574 48.5 9.5625V11.6484L65.1875 9.5625C68.2643 9.5625 70.75 12.0482 70.75 15.125C70.75 18.2018 68.2643 20.6875 65.1875 20.6875L48.5 18.6016L43.1113 17.9236L42.9375 17.9062L42.7637 17.9236L37.375 18.6016L20.6875 20.6875C17.6107 20.6875 15.125 18.2018 15.125 15.125C15.125 12.0482 17.6107 9.5625 20.6875 9.5625L37.375 11.6484V9.5625C37.375 6.48574 39.8607 4 42.9375 4ZM4 42.9375C4 39.8607 6.48574 37.375 9.5625 37.375H26.25L30.1785 33.4465C31.2215 32.4035 32.6295 31.8125 34.107 31.8125H37.375V24.1988L42.9375 23.5035L48.5 24.1988V31.8125H51.7506C53.2281 31.8125 54.6361 32.4035 55.6791 33.4465L59.625 37.375H65.1875C80.5539 37.375 93 49.8211 93 65.1875C93 68.2643 90.5143 70.75 87.4375 70.75H76.3125C73.2357 70.75 70.75 68.2643 70.75 65.1875C70.75 62.1107 68.2643 59.625 65.1875 59.625H58.9123C55.401 64.666 49.543 67.9688 42.9375 67.9688C36.332 67.9688 30.474 64.666 26.9627 59.625H9.5625C6.48574 59.625 4 57.1393 4 54.0625V42.9375ZM79.9281 77.5988C80.2584 76.8166 81.0232 76.3125 81.875 76.3125C82.7268 76.3125 83.4742 76.8166 83.8219 77.5988L86.9855 84.9691C87.2984 85.6818 87.4549 86.4641 87.4549 87.2463V87.4375C87.4549 90.5143 84.9691 93 81.8924 93C78.8156 93 76.3299 90.5143 76.3299 87.4375V87.2289C76.3299 86.4467 76.4863 85.6818 76.7992 84.9518L79.9629 77.5814L79.9281 77.5988Z" stroke="#00AAE2" stroke-width="8"/>
</svg>
