<svg width="116" height="116" viewBox="0 0 116 116" fill="none" xmlns="http://www.w3.org/2000/svg">
<path d="M82.1715 68.6667C82.1715 71.27 80.0372 73.4 77.4287 73.4H34.7429C32.1343 73.4 30 71.27 30 68.6667C30 66.0633 32.1343 63.9333 34.7429 63.9333H77.4287C80.0372 63.9333 82.1715 66.0633 82.1715 68.6667ZM30 49.7333C30 52.3367 32.1343 54.4667 34.7429 54.4667H77.4287C80.0372 54.4667 82.1715 52.3367 82.1715 49.7333C82.1715 47.13 80.0372 45 77.4287 45H34.7429C32.1343 45 30 47.13 30 49.7333ZM63.2001 87.6C63.2001 84.9967 61.0658 82.8667 58.4572 82.8667H34.7429C32.1343 82.8667 30 84.9967 30 87.6C30 90.2033 32.1343 92.3333 34.7429 92.3333H58.4572C61.0658 92.3333 63.2001 90.2033 63.2001 87.6ZM101.19 77.518L104.558 74.1573C104.997 73.7185 105.518 73.3704 106.092 73.1329C106.665 72.8954 107.28 72.7731 107.902 72.7731C108.523 72.7731 109.138 72.8954 109.712 73.1329C110.285 73.3704 110.806 73.7185 111.245 74.1573L114.613 77.518C116.462 79.364 116.462 82.346 114.613 84.192L111.245 87.5527L101.19 77.518ZM97.823 80.8787L73.3498 105.303C72.9229 105.729 72.6858 106.297 72.6858 106.959V113.633C72.6858 114.959 73.7292 116 75.0572 116H81.7447C82.3612 116 82.9778 115.763 83.4047 115.29L107.878 90.866L97.823 80.8787V80.8787Z" fill="#00AAE2"/>
<path d="M82.7273 12.4286H70.3182V8.28571C70.3116 6.09022 69.4379 3.98653 67.8879 2.43407C66.3379 0.881619 64.2375 0.00655701 62.0455 0H28.9545C26.7625 0.00655701 24.6621 0.881619 23.1121 2.43407C21.5621 3.98653 20.6884 6.09022 20.6818 8.28571V12.4286H8.27273C6.08068 12.4351 3.98028 13.3102 2.43026 14.8626C0.880238 16.4151 0.00654673 18.5188 0 20.7143V107.714C0.00654673 109.91 0.880238 112.013 2.43026 113.566C3.98028 115.118 6.08068 115.993 8.27273 116H45.5V107.714H8.27273V20.7143H20.6818V33.1429H70.3182V20.7143H82.7273V41.4286H91V20.7143C90.9935 18.5188 90.1198 16.4151 88.5697 14.8626C87.0197 13.3102 84.9193 12.4351 82.7273 12.4286ZM62.0455 24.8571H28.9545V8.28571H62.0455V24.8571Z" fill="#00AAE2"/>
</svg>
