<svg width="116" height="116" viewBox="0 0 116 116" fill="none" xmlns="http://www.w3.org/2000/svg">
<path d="M41.5377 29.4515H73.7676C76.9731 29.4515 80.0473 30.7248 82.3139 32.9914C84.5805 35.258 85.8539 38.3322 85.8539 41.5377V73.7676C85.8539 76.9731 84.5805 80.0473 82.3139 82.3139C80.0473 84.5805 76.9731 85.8539 73.7676 85.8539H41.5377C38.3322 85.8539 35.258 84.5805 32.9914 82.3139C30.7248 80.0473 29.4515 76.9731 29.4515 73.7676V41.5377C29.4515 38.3322 30.7248 35.258 32.9914 32.9914C35.258 30.7248 38.3322 29.4515 41.5377 29.4515V29.4515ZM41.5377 37.5089C40.4692 37.5089 39.4445 37.9334 38.6889 38.6889C37.9334 39.4445 37.5089 40.4692 37.5089 41.5377V73.7676C37.5089 74.8361 37.9334 75.8608 38.6889 76.6164C39.4445 77.3719 40.4692 77.7964 41.5377 77.7964H73.7676C74.8361 77.7964 75.8608 77.3719 76.6164 76.6164C77.3719 75.8608 77.7964 74.8361 77.7964 73.7676V41.5377C77.7964 40.4692 77.3719 39.4445 76.6164 38.6889C75.8608 37.9334 74.8361 37.5089 73.7676 37.5089H41.5377ZM49.5952 45.5664H65.7101C66.7786 45.5664 67.8034 45.9909 68.5589 46.7464C69.3144 47.502 69.7389 48.5267 69.7389 49.5952V65.7101C69.7389 66.7786 69.3144 67.8034 68.5589 68.5589C67.8034 69.3144 66.7786 69.7389 65.7101 69.7389H49.5952C48.5267 69.7389 47.502 69.3144 46.7464 68.5589C45.9909 67.8034 45.5664 66.7786 45.5664 65.7101V49.5952C45.5664 48.5267 45.9909 47.502 46.7464 46.7464C47.502 45.9909 48.5267 45.5664 49.5952 45.5664V45.5664ZM53.6239 53.6239V61.6814H61.6814V53.6239H53.6239ZM41.5377 17.3652C42.6062 17.3652 43.6309 17.7897 44.3864 18.5452C45.142 19.3008 45.5664 20.3255 45.5664 21.394V29.4515C45.5664 30.52 45.142 31.5447 44.3864 32.3002C43.6309 33.0558 42.6062 33.4802 41.5377 33.4802C40.4692 33.4802 39.4445 33.0558 38.6889 32.3002C37.9334 31.5447 37.5089 30.52 37.5089 29.4515V21.394C37.5089 20.3255 37.9334 19.3008 38.6889 18.5452C39.4445 17.7897 40.4692 17.3652 41.5377 17.3652V17.3652ZM21.394 37.5089H29.4515C30.52 37.5089 31.5447 37.9334 32.3002 38.6889C33.0558 39.4445 33.4802 40.4692 33.4802 41.5377C33.4802 42.6062 33.0558 43.6309 32.3002 44.3864C31.5447 45.142 30.52 45.5664 29.4515 45.5664H21.394C20.3255 45.5664 19.3008 45.142 18.5452 44.3864C17.7897 43.6309 17.3652 42.6062 17.3652 41.5377C17.3652 40.4692 17.7897 39.4445 18.5452 38.6889C19.3008 37.9334 20.3255 37.5089 21.394 37.5089V37.5089ZM85.8539 37.5089H93.9113C94.9798 37.5089 96.0046 37.9334 96.7601 38.6889C97.5156 39.4445 97.9401 40.4692 97.9401 41.5377C97.9401 42.6062 97.5156 43.6309 96.7601 44.3864C96.0046 45.142 94.9798 45.5664 93.9113 45.5664H85.8539C84.7854 45.5664 83.7606 45.142 83.0051 44.3864C82.2496 43.6309 81.8251 42.6062 81.8251 41.5377C81.8251 40.4692 82.2496 39.4445 83.0051 38.6889C83.7606 37.9334 84.7854 37.5089 85.8539 37.5089V37.5089ZM21.394 53.6239H29.4515C30.52 53.6239 31.5447 54.0484 32.3002 54.8039C33.0558 55.5594 33.4802 56.5842 33.4802 57.6527C33.4802 58.7212 33.0558 59.7459 32.3002 60.5014C31.5447 61.2569 30.52 61.6814 29.4515 61.6814H21.394C20.3255 61.6814 19.3008 61.2569 18.5452 60.5014C17.7897 59.7459 17.3652 58.7212 17.3652 57.6527C17.3652 56.5842 17.7897 55.5594 18.5452 54.8039C19.3008 54.0484 20.3255 53.6239 21.394 53.6239V53.6239ZM85.8539 53.6239H93.9113C94.9798 53.6239 96.0046 54.0484 96.7601 54.8039C97.5156 55.5594 97.9401 56.5842 97.9401 57.6527C97.9401 58.7212 97.5156 59.7459 96.7601 60.5014C96.0046 61.2569 94.9798 61.6814 93.9113 61.6814H85.8539C84.7854 61.6814 83.7606 61.2569 83.0051 60.5014C82.2496 59.7459 81.8251 58.7212 81.8251 57.6527C81.8251 56.5842 82.2496 55.5594 83.0051 54.8039C83.7606 54.0484 84.7854 53.6239 85.8539 53.6239ZM21.394 69.7389H29.4515C30.52 69.7389 31.5447 70.1633 32.3002 70.9189C33.0558 71.6744 33.4802 72.6991 33.4802 73.7676C33.4802 74.8361 33.0558 75.8608 32.3002 76.6164C31.5447 77.3719 30.52 77.7964 29.4515 77.7964H21.394C20.3255 77.7964 19.3008 77.3719 18.5452 76.6164C17.7897 75.8608 17.3652 74.8361 17.3652 73.7676C17.3652 72.6991 17.7897 71.6744 18.5452 70.9189C19.3008 70.1633 20.3255 69.7389 21.394 69.7389V69.7389ZM85.8539 69.7389H93.9113C94.9798 69.7389 96.0046 70.1633 96.7601 70.9189C97.5156 71.6744 97.9401 72.6991 97.9401 73.7676C97.9401 74.8361 97.5156 75.8608 96.7601 76.6164C96.0046 77.3719 94.9798 77.7964 93.9113 77.7964H85.8539C84.7854 77.7964 83.7606 77.3719 83.0051 76.6164C82.2496 75.8608 81.8251 74.8361 81.8251 73.7676C81.8251 72.6991 82.2496 71.6744 83.0051 70.9189C83.7606 70.1633 84.7854 69.7389 85.8539 69.7389ZM41.5377 81.8251C42.6062 81.8251 43.6309 82.2496 44.3864 83.0051C45.142 83.7606 45.5664 84.7854 45.5664 85.8539V93.9113C45.5664 94.9798 45.142 96.0046 44.3864 96.7601C43.6309 97.5156 42.6062 97.9401 41.5377 97.9401C40.4692 97.9401 39.4445 97.5156 38.6889 96.7601C37.9334 96.0046 37.5089 94.9798 37.5089 93.9113V85.8539C37.5089 84.7854 37.9334 83.7606 38.6889 83.0051C39.4445 82.2496 40.4692 81.8251 41.5377 81.8251ZM73.7676 17.3652C74.8361 17.3652 75.8608 17.7897 76.6164 18.5452C77.3719 19.3008 77.7964 20.3255 77.7964 21.394V29.4515C77.7964 30.52 77.3719 31.5447 76.6164 32.3002C75.8608 33.0558 74.8361 33.4802 73.7676 33.4802C72.6991 33.4802 71.6744 33.0558 70.9189 32.3002C70.1633 31.5447 69.7389 30.52 69.7389 29.4515V21.394C69.7389 20.3255 70.1633 19.3008 70.9189 18.5452C71.6744 17.7897 72.6991 17.3652 73.7676 17.3652V17.3652ZM73.7676 81.8251C74.8361 81.8251 75.8608 82.2496 76.6164 83.0051C77.3719 83.7606 77.7964 84.7854 77.7964 85.8539V93.9113C77.7964 94.9798 77.3719 96.0046 76.6164 96.7601C75.8608 97.5156 74.8361 97.9401 73.7676 97.9401C72.6991 97.9401 71.6744 97.5156 70.9189 96.7601C70.1633 96.0046 69.7389 94.9798 69.7389 93.9113V85.8539C69.7389 84.7854 70.1633 83.7606 70.9189 83.0051C71.6744 82.2496 72.6991 81.8251 73.7676 81.8251V81.8251ZM57.6527 17.3652C58.7212 17.3652 59.7459 17.7897 60.5014 18.5452C61.2569 19.3008 61.6814 20.3255 61.6814 21.394V29.4515C61.6814 30.52 61.2569 31.5447 60.5014 32.3002C59.7459 33.0558 58.7212 33.4802 57.6527 33.4802C56.5842 33.4802 55.5594 33.0558 54.8039 32.3002C54.0484 31.5447 53.6239 30.52 53.6239 29.4515V21.394C53.6239 20.3255 54.0484 19.3008 54.8039 18.5452C55.5594 17.7897 56.5842 17.3652 57.6527 17.3652V17.3652ZM57.6527 81.8251C58.7212 81.8251 59.7459 82.2496 60.5014 83.0051C61.2569 83.7606 61.6814 84.7854 61.6814 85.8539V93.9113C61.6814 94.9798 61.2569 96.0046 60.5014 96.7601C59.7459 97.5156 58.7212 97.9401 57.6527 97.9401C56.5842 97.9401 55.5594 97.5156 54.8039 96.7601C54.0484 96.0046 53.6239 94.9798 53.6239 93.9113V85.8539C53.6239 84.7854 54.0484 83.7606 54.8039 83.0051C55.5594 82.2496 56.5842 81.8251 57.6527 81.8251V81.8251Z" fill="#00AAE2"/>
<circle cx="41.329" cy="105.234" r="6.76647" stroke="#00AAE2" stroke-width="8"/>
<circle cx="105.233" cy="57.3055" r="6.76647" stroke="#00AAE2" stroke-width="8"/>
<circle cx="10.7665" cy="57.3055" r="6.76647" stroke="#00AAE2" stroke-width="8"/>
<circle cx="73.9764" cy="10.7665" r="6.76647" stroke="#00AAE2" stroke-width="8"/>
</svg>
