<svg width="116" height="73" viewBox="0 0 116 73" fill="none" xmlns="http://www.w3.org/2000/svg">
<path d="M91.7306 13.1C88.4736 9.42662 80.591 1.87219 69.4913 0.151137C65.4131 -0.4597 61.2643 0.80787 57.9982 3.46758C54.7375 0.965223 50.5869 -0.318738 46.4906 0.307763C32.045 2.54969 22.9644 14.7573 22.5838 15.2855C21.162 17.2324 21.5813 19.9697 23.5127 21.3993C24.2575 21.9513 25.159 22.2486 26.0846 22.2475C27.4269 22.2475 28.7472 21.6328 29.5972 20.466C29.6708 20.3634 36.8817 10.6477 47.8128 8.95037C49.1644 8.77535 50.528 9.07239 51.7206 9.76682L41.18 20.5852C38.9325 22.8253 37.5369 25.6665 37.5369 29.0175C37.5369 32.2046 38.7716 35.1987 41.0096 37.4479C43.4094 39.7081 46.3819 40.7826 49.5538 40.7826C52.7256 40.7826 55.7054 39.5418 57.9474 37.2877L60.0046 35.2206L82.5159 53.5967C82.9349 53.9382 82.9973 54.553 82.6065 55.0482L77.5877 61.5591C77.2535 61.9689 76.6361 62.0315 76.2907 61.7527L72.2633 58.3488L67.5164 63.4027C67.0915 63.9263 66.5478 64.0516 66.2646 64.08C65.9645 64.1084 65.4378 64.1028 65.03 63.767L59.1557 58.7295L56.3144 61.3988L55.8047 61.9339C54.7455 63.2373 53.2509 64.0574 51.5852 64.2286C49.8689 64.3767 48.2774 63.9099 47.1446 62.9935L30.8669 48.195H17.4V13.3186H0V59.869L11.6 59.8763C13.7279 59.8763 15.5096 58.655 16.5191 56.9368H27.5101L41.4773 69.6235C44.1706 71.8344 47.4694 73 50.895 73C51.4161 73 51.9428 72.9772 52.4639 72.9202C54.9325 72.6642 57.2507 71.816 59.2553 70.4616L59.4196 70.6096C61.6 72.4083 64.3641 73.234 67.1571 72.9372C69.5478 72.6867 71.7391 71.6565 73.3033 70.1416C77.1259 71.6328 81.6571 70.5685 84.4049 67.142L89.4237 60.6312C92.7714 56.4751 92.137 50.3449 88.002 46.9702L66.1976 29.1659L67.7166 27.6394C69.4159 25.9318 69.4159 23.1646 67.7166 21.4582C66.0174 19.7506 63.2651 19.7506 61.565 21.4582L51.8012 31.2576C50.605 32.4778 48.5206 32.4778 47.3244 31.2576C46.7241 30.6599 46.3955 29.8631 46.3955 29.0157C46.3955 28.1619 46.7239 27.3649 47.3527 26.7337L62.9238 10.7725C64.3398 9.34375 66.2824 8.63257 68.1692 8.94582C78.9989 10.625 86.3305 20.3703 86.403 20.4723C86.9627 21.229 87.7196 21.7373 88.549 21.9978H98.6V53.8874C98.6 57.1055 101.197 59.7244 104.237 59.7244L116 59.8872V13.2821L91.7306 13.1ZM8.7 54.0593C7.11406 54.0593 5.8 52.7398 5.8 51.1472C5.8 49.5306 7.11406 48.235 8.7 48.235C10.2859 48.235 11.6 49.5427 11.6 51.1636C11.6 52.748 10.2859 54.0593 8.7 54.0593V54.0593ZM107.3 54.0593C105.714 54.0593 104.4 52.7398 104.4 51.1472C104.4 49.5306 105.714 48.235 107.3 48.235C108.886 48.235 110.2 49.5312 110.2 51.1472C110.2 52.748 108.895 54.0593 107.3 54.0593Z" fill="#00AAE2"/>
</svg>
